{
  "accessors": [
    {
      "bufferView": 2,
      "componentType": 5126,
      "count": 36,
      "max": [
        15.939248085021973,
        15.697097778320312,
        27.307619094848633
      ],
      "min": [
        -15.939258575439453,
        -15.697101593017578,
        -27.307621002197266
      ],
      "type": "VEC3"
    },
    {
      "bufferView": 2,
      "byteOffset": 432,
      "componentType": 5126,
      "count": 36,
      "max": [
        2.3924544620967936e-06,
        3.436781526033883e-06,
        1
      ],
      "min": [
        -1.9842245819745585e-06,
        -2.9615011953865178e-06,
        -1
      ],
      "type": "VEC3"
    },
    {
      "bufferView": 3,
      "componentType": 5126,
      "count": 36,
      "max": [
        1,
        4.5324646634981036e-05,
        2.3924353627080563e-06,
        1
      ],
      "min": [
        1,
        -4.0975981391966343e-05,
        -1.9842864276142791e-06,
        -1
      ],
      "type": "VEC4"
    },
    {
      "bufferView": 1,
      "componentType": 5126,
      "count": 36,
      "max": [
        0.8851240873336792,
        0.29473245143890381
      ],
      "min": [
        0.82063132524490356,
        0.065485149621963501
      ],
      "type": "VEC2"
    },
    {
      "bufferView": 0,
      "componentType": 5125,
      "count": 96,
      "max": [
        35
      ],
      "min": [
        0
      ],
      "type": "SCALAR"
    },
    {
      "bufferView": 2,
      "byteOffset": 864,
      "componentType": 5126,
      "count": 706,
      "max": [
        46.133636474609375,
        46.133636474609375,
        32.376186370849609
      ],
      "min": [
        -46.133636474609375,
        -43.900493621826172,
        -32.376186370849609
      ],
      "type": "VEC3"
    },
    {
      "bufferView": 2,
      "byteOffset": 9336,
      "componentType": 5126,
      "count": 706,
      "max": [
        0.99985891580581665,
        1,
        0.97921872138977051
      ],
      "min": [
        -0.99518477916717529,
        -0.9996105432510376,
        -0.97921872138977051
      ],
      "type": "VEC3"
    },
    {
      "bufferView": 3,
      "byteOffset": 576,
      "componentType": 5126,
      "count": 706,
      "max": [
        0.9999997615814209,
        0.99983996152877808,
        0.99999946355819702,
        1
      ],
      "min": [
        -1,
        -0.99983805418014526,
        -1,
        1
      ],
      "type": "VEC4"
    },
    {
      "bufferView": 1,
      "byteOffset": 288,
      "componentType": 5126,
      "count": 706,
      "max": [
        0.99547880887985229,
        0.92365598678588867
      ],
      "min": [
        0.0052947020158171654,
        0.0095830261707305908
      ],
      "type": "VEC2"
    },
    {
      "bufferView": 0,
      "byteOffset": 384,
      "componentType": 5125,
      "count": 2940,
      "max": [
        705
      ],
      "min": [
        0
      ],
      "type": "SCALAR"
    },
    {
      "bufferView": 2,
      "byteOffset": 17808,
      "componentType": 5126,
      "count": 296,
      "max": [
        17.037105560302734,
        16.778278350830078,
        32.170005798339844
      ],
      "min": [
        -17.037120819091797,
        -16.778282165527344,
        -32.170005798339844
      ],
      "type": "VEC3"
    },
    {
      "bufferView": 2,
      "byteOffset": 21360,
      "componentType": 5126,
      "count": 296,
      "max": [
        1,
        0.98480790853500366,
        0.98887044191360474
      ],
      "min": [
        -1,
        -0.98480784893035889,
        -0.98887044191360474
      ],
      "type": "VEC3"
    },
    {
      "bufferView": 3,
      "byteOffset": 11872,
      "componentType": 5126,
      "count": 296,
      "max": [
        0.99965888261795044,
        1,
        1,
        1
      ],
      "min": [
        -0.98480778932571411,
        -1,
        -0.50544309616088867,
        -1
      ],
      "type": "VEC4"
    },
    {
      "bufferView": 1,
      "byteOffset": 5936,
      "componentType": 5126,
      "count": 296,
      "max": [
        0.99325823783874512,
        0.97969210147857666
      ],
      "min": [
        0.0060916007496416569,
        0.0036996167618781328
      ],
      "type": "VEC2"
    },
    {
      "bufferView": 0,
      "byteOffset": 12144,
      "componentType": 5125,
      "count": 864,
      "max": [
        295
      ],
      "min": [
        0
      ],
      "type": "SCALAR"
    },
    {
      "bufferView": 2,
      "byteOffset": 24912,
      "componentType": 5126,
      "count": 145,
      "max": [
        11.003284454345703,
        10.836061477661133,
        28.744997024536133
      ],
      "min": [
        -11.003166198730469,
        -10.836064338684082,
        -28.744997024536133
      ],
      "type": "VEC3"
    },
    {
      "bufferView": 2,
      "byteOffset": 26652,
      "componentType": 5126,
      "count": 145,
      "max": [
        1,
        0.98480784893035889,
        1
      ],
      "min": [
        -1,
        -0.98480790853500366,
        -1
      ],
      "type": "VEC3"
    },
    {
      "bufferView": 3,
      "byteOffset": 16608,
      "componentType": 5126,
      "count": 145,
      "max": [
        1,
        1,
        4.2850920181081165e-06,
        1
      ],
      "min": [
        -0.98480778932571411,
        -1,
        -2.3949278329382651e-06,
        -1
      ],
      "type": "VEC4"
    },
    {
      "bufferView": 1,
      "byteOffset": 8304,
      "componentType": 5126,
      "count": 145,
      "max": [
        0.98971080780029297,
        0.99563103914260864
      ],
      "min": [
        0.34704983234405518,
        0.44918477535247803
      ],
      "type": "VEC2"
    },
    {
      "bufferView": 0,
      "byteOffset": 15600,
      "componentType": 5125,
      "count": 324,
      "max": [
        144
      ],
      "min": [
        0
      ],
      "type": "SCALAR"
    }
  ],
  "asset": {
    "extras": {
      "author": "emilevdb (https://sketchfab.com/emilevdb)",
      "license": "CC-BY-4.0 (http://creativecommons.org/licenses/by/4.0/)",
      "source": "https://sketchfab.com/models/ac08a767ca664d389134667c81a66018",
      "title": "Guy Manuel redesign"
    },
    "generator": "Sketchfab-3.19.2",
    "version": "2.0"
  },
  "bufferViews": [
    {
      "buffer": 0,
      "byteLength": 16896,
      "byteOffset": 0,
      "name": "floatBufferViews",
      "target": 34963
    },
    {
      "buffer": 0,
      "byteLength": 9464,
      "byteOffset": 16896,
      "byteStride": 8,
      "name": "floatBufferViews",
      "target": 34962
    },
    {
      "buffer": 0,
      "byteLength": 28392,
      "byteOffset": 26360,
      "byteStride": 12,
      "name": "floatBufferViews",
      "target": 34962
    },
    {
      "buffer": 0,
      "byteLength": 18928,
      "byteOffset": 54752,
      "byteStride": 16,
      "name": "floatBufferViews",
      "target": 34962
    }
  ],
  "buffers": [
    {
      "byteLength": 73680,
      "uri": "scene.bin"
    }
  ],
  "images": [
    {
      "uri": "textures/DPGuy_normal.png"
    },
    {
      "uri": "textures/DPGuy_metallicRoughness.png"
    },
    {
      "uri": "textures/DPGuy_baseColor.png"
    }
  ],
  "materials": [
    {
      "doubleSided": true,
      "emissiveFactor": [
        0,
        0,
        0
      ],
      "name": "DPGuy",
      "normalTexture": {
        "index": 0,
        "scale": 1,
        "texCoord": 0
      },
      "pbrMetallicRoughness": {
        "baseColorFactor": [
          1,
          1,
          1,
          1
        ],
        "baseColorTexture": {
          "index": 2,
          "texCoord": 0
        },
        "metallicFactor": 1,
        "metallicRoughnessTexture": {
          "index": 1,
          "texCoord": 0
        },
        "roughnessFactor": 1
      }
    }
  ],
  "meshes": [
    {
      "name": "EarFill_Lowpoly_DPGuy_0",
      "primitives": [
        {
          "attributes": {
            "NORMAL": 1,
            "POSITION": 0,
            "TANGENT": 2,
            "TEXCOORD_0": 3
          },
          "indices": 4,
          "material": 0,
          "mode": 4
        }
      ]
    },
    {
      "name": "Visor_Lowpoly_DPGuy_0",
      "primitives": [
        {
          "attributes": {
            "NORMAL": 6,
            "POSITION": 5,
            "TANGENT": 7,
            "TEXCOORD_0": 8
          },
          "indices": 9,
          "material": 0,
          "mode": 4
        }
      ]
    },
    {
      "name": "EarTrims_Lowpoly_DPGuy_0",
      "primitives": [
        {
          "attributes": {
            "NORMAL": 11,
            "POSITION": 10,
            "TANGENT": 12,
            "TEXCOORD_0": 13
          },
          "indices": 14,
          "material": 0,
          "mode": 4
        }
      ]
    },
    {
      "name": "EarCenter_Lowpoly_DPGuy_0",
      "primitives": [
        {
          "attributes": {
            "NORMAL": 16,
            "POSITION": 15,
            "TANGENT": 17,
            "TEXCOORD_0": 18
          },
          "indices": 19,
          "material": 0,
          "mode": 4
        }
      ]
    }
  ],
  "nodes": [
    {
      "children": [
        1
      ],
      "name": "RootNode (gltf orientation matrix)",
      "rotation": [
        -0.70710678118654746,
        -0,
        -0,
        0.70710678118654757
      ]
    },
    {
      "children": [
        2
      ],
      "matrix": [
        1,
        0,
        0,
        0,
        0,
        0.9892151951789856,
        0.14646941423416138,
        0,
        0,
        -0.14646941423416138,
        0.9892151951789856,
        0,
        0,
        0.16354888677597046,
        0.01204969547688961,
        1
      ],
      "name": "RootNode (model correction matrix)"
    },
    {
      "children": [
        3
      ],
      "matrix": [
        1,
        0,
        0,
        0,
        0,
        0,
        1,
        0,
        0,
        -1,
        0,
        0,
        0,
        0,
        0,
        1
      ],
      "name": "a344804edd5f494aa1dab3645f1a7d81.fbx"
    },
    {
      "children": [
        4,
        6,
        8,
        10
      ],
      "name": "RootNode"
    },
    {
      "children": [
        5
      ],
      "matrix": [
        1.6292068460987963e-07,
        0,
        0.99999999999998668,
        0,
        -4.3711388225504991e-08,
        0.999999999999999,
        7.1214892959639279e-15,
        0,
        -0.99999999999998579,
        -4.3711388225505573e-08,
        1.6292068460987963e-07,
        0,
        2.5545922710534796e-08,
        0,
        0,
        1
      ],
      "name": "EarFill_Lowpoly"
    },
    {
      "mesh": 0,
      "name": "EarFill_Lowpoly_DPGuy_0"
    },
    {
      "children": [
        7
      ],
      "matrix": [
        1.6292068449885733e-07,
        -1.3234889800848443e-23,
        0.99999999999998668,
        0,
        -1.6292068488171135e-07,
        0.99999999999998668,
        2.6543149516178714e-14,
        0,
        -0.99999999999997335,
        -1.6292068488171352e-07,
        1.6292068449885733e-07,
        0,
        2.5545922710534796e-08,
        0,
        0,
        1
      ],
      "name": "Visor_Lowpoly"
    },
    {
      "mesh": 1,
      "name": "Visor_Lowpoly_DPGuy_0"
    },
    {
      "children": [
        9
      ],
      "matrix": [
        1.6292068449885733e-07,
        -1.3234889800848443e-23,
        0.99999999999998668,
        0,
        -1.6292068488171135e-07,
        0.99999999999998668,
        2.6543149516178714e-14,
        0,
        -0.99999999999997335,
        -1.6292068488171352e-07,
        1.6292068449885733e-07,
        0,
        2.5545922710534796e-08,
        0,
        0,
        1
      ],
      "name": "EarTrims_Lowpoly"
    },
    {
      "mesh": 2,
      "name": "EarTrims_Lowpoly_DPGuy_0"
    },
    {
      "children": [
        11
      ],
      "matrix": [
        1.6292068449885733e-07,
        -1.3234889800848443e-23,
        0.99999999999998668,
        0,
        -1.6292068488171135e-07,
        0.99999999999998668,
        2.6543149516178714e-14,
        0,
        -0.99999999999997335,
        -1.6292068488171352e-07,
        1.6292068449885733e-07,
        0,
        2.5545922710534796e-08,
        0,
        0,
        1
      ],
      "name": "EarCenter_Lowpoly"
    },
    {
      "mesh": 3,
      "name": "EarCenter_Lowpoly_DPGuy_0"
    }
  ],
  "samplers": [
    {
      "magFilter": 9729,
      "minFilter": 9987,
      "wrapS": 10497,
      "wrapT": 10497
    }
  ],
  "scene": 0,
  "scenes": [
    {
      "name": "OSG_Scene",
      "nodes": [
        0
      ]
    }
  ],
  "textures": [
    {
      "sampler": 0,
      "source": 0
    },
    {
      "sampler": 0,
      "source": 1
    },
    {
      "sampler": 0,
      "source": 2
    }
  ]
}

